<svg width="48" height="48" viewBox="0 0 48 48" fill="none" xmlns="http://www.w3.org/2000/svg">
<path d="M6 11.5C6 10.0413 6.57946 8.64236 7.61091 7.61091C8.64236 6.57946 10.0413 6 11.5 6H36.5C37.9587 6 39.3576 6.57946 40.3891 7.61091C41.4205 8.64236 42 10.0413 42 11.5V24.044C40.7719 23.257 39.4195 22.6836 38 22.348V11.5C38 11.1022 37.842 10.7206 37.5607 10.4393C37.2794 10.158 36.8978 10 36.5 10H11.5C11.1022 10 10.7206 10.158 10.4393 10.4393C10.158 10.7206 10 11.1022 10 11.5V36.5C10 37.328 10.672 38 11.5 38H22.348C22.688 39.44 23.268 40.79 24.044 42H11.5C10.0413 42 8.64236 41.4205 7.61091 40.3891C6.57946 39.3576 6 37.9587 6 36.5V11.5ZM46 35C46 32.0826 44.8411 29.2847 42.7782 27.2218C40.7153 25.1589 37.9174 24 35 24C32.0826 24 29.2847 25.1589 27.2218 27.2218C25.1589 29.2847 24 32.0826 24 35C24 37.9174 25.1589 40.7153 27.2218 42.7782C29.2847 44.8411 32.0826 46 35 46C37.9174 46 40.7153 44.8411 42.7782 42.7782C44.8411 40.7153 46 37.9174 46 35ZM36 36L36.002 41.006C36.002 41.2712 35.8966 41.5256 35.7091 41.7131C35.5216 41.9007 35.2672 42.006 35.002 42.006C34.7368 42.006 34.4824 41.9007 34.2949 41.7131C34.1074 41.5256 34.002 41.2712 34.002 41.006V36H28.992C28.7268 36 28.4724 35.8947 28.2849 35.7071C28.0974 35.5196 27.992 35.2652 27.992 35C27.992 34.7348 28.0974 34.4804 28.2849 34.2929C28.4724 34.1054 28.7268 34 28.992 34H34V29C34 28.7348 34.1054 28.4804 34.2929 28.2929C34.4804 28.1054 34.7348 28 35 28C35.2652 28 35.5196 28.1054 35.7071 28.2929C35.8947 28.4804 36 28.7348 36 29V34H40.994C41.2592 34 41.5136 34.1054 41.7011 34.2929C41.8887 34.4804 41.994 34.7348 41.994 35C41.994 35.2652 41.8887 35.5196 41.7011 35.7071C41.5136 35.8947 41.2592 36 40.994 36H36Z" fill="currentColor"/>
</svg>
