<svg width="16" height="16" viewBox="0 0 16 16" fill="none" xmlns="http://www.w3.org/2000/svg">
<g clip-path="url(#clip0_45_3178)">
<path d="M7.19995 4.80005V8.80005H7.24795L9.23195 10.776L10.36 9.64805L8.79995 8.08805V4.80005H7.19995Z" fill="currentColor"/>
<path d="M8.00003 0.800049C6.74981 0.804064 5.52218 1.13356 4.43797 1.7561C3.35376 2.37864 2.45034 3.27276 1.81662 4.35048C1.18291 5.4282 0.840745 6.65235 0.823807 7.90247C0.806869 9.15258 1.11574 10.3856 1.72002 11.48L0.400024 12.8H4.80003V8.40005L2.89602 10.304C2.39865 9.2022 2.27118 7.969 2.53268 6.78872C2.79418 5.60844 3.43059 4.54447 4.34681 3.75582C5.26303 2.96717 6.40987 2.49618 7.61592 2.41324C8.82197 2.33031 10.0225 2.63988 11.038 3.29569C12.0536 3.9515 12.8296 4.91834 13.2502 6.05171C13.6708 7.18508 13.7134 8.42413 13.3715 9.58368C13.0297 10.7432 12.3217 11.761 11.3536 12.4849C10.3854 13.2089 9.20893 13.6001 8.00003 13.6V15.2C9.90959 15.2 11.7409 14.4415 13.0912 13.0912C14.4415 11.741 15.2 9.9096 15.2 8.00005C15.2 6.09049 14.4415 4.25914 13.0912 2.90888C11.7409 1.55862 9.90959 0.800049 8.00003 0.800049Z" fill="currentColor"/>
</g>
<defs>
<clipPath id="clip0_45_3178">
<rect width="16" height="16" fill="currentColor"/>
</clipPath>
</defs>
</svg>
