<svg width="48" height="48" viewBox="0 0 48 48" fill="none" xmlns="http://www.w3.org/2000/svg">
<path d="M12 40C10.3333 40 8.91667 39.4167 7.75 38.25C6.58333 37.0833 6 35.6667 6 34V18C6 17.4333 6.192 16.9587 6.576 16.576C6.96 16.1933 7.43467 16.0013 8 16H40C40.5667 16 41.042 16.192 41.426 16.576C41.81 16.96 42.0013 17.4347 42 18V34C42 35.6667 41.4167 37.0833 40.25 38.25C39.0833 39.4167 37.6667 40 36 40H12ZM18 10V8C18 7.43333 18.192 6.95867 18.576 6.576C18.96 6.19333 19.4347 6.00133 20 6H28C28.5667 6 29.042 6.192 29.426 6.576C29.81 6.96 30.0013 7.43467 30 8V10H40C40.5667 10 41.042 10.192 41.426 10.576C41.81 10.96 42.0013 11.4347 42 12C42 12.5667 41.808 13.042 41.424 13.426C41.04 13.81 40.5653 14.0013 40 14H8C7.43333 14 6.95867 13.808 6.576 13.424C6.19333 13.04 6.00133 12.5653 6 12C6 11.4333 6.192 10.9587 6.576 10.576C6.96 10.1933 7.43467 10.0013 8 10H18Z" fill="currentColor"/>
</svg>
