<svg width="48" height="48" viewBox="0 0 48 48" fill="none" xmlns="http://www.w3.org/2000/svg">
<path d="M14.4 38.4C13.08 38.4 11.9504 37.9304 11.0112 36.9912C10.072 36.052 9.6016 34.9216 9.6 33.6V4.8C9.6 3.48 10.0704 2.3504 11.0112 1.4112C11.952 0.472 13.0816 0.0016 14.4 0H43.2C44.52 0 45.6504 0.4704 46.5912 1.4112C47.532 2.352 48.0016 3.4816 48 4.8V33.6C48 34.92 47.5304 36.0504 46.5912 36.9912C45.652 37.932 44.5216 38.4016 43.2 38.4H14.4ZM14.4 9.6H43.2V4.8H14.4V9.6ZM4.8 48C3.48 48 2.3504 47.5304 1.4112 46.5912C0.472 45.652 0.0016 44.5216 0 43.2V9.6H4.8V43.2H38.4V48H4.8Z" fill="white"/>
</svg>
