<svg width="16" height="16" viewBox="0 0 16 16" fill="none" xmlns="http://www.w3.org/2000/svg">
<g clip-path="url(#clip0_63_101)">
<g clip-path="url(#clip1_63_101)">
<path d="M2.34404 13.6562C1.57996 12.9182 0.9705 12.0354 0.551228 11.0594C0.131956 10.0834 -0.088734 9.03361 -0.0979645 7.97137C-0.107195 6.90914 0.0952185 5.8557 0.497466 4.87253C0.899713 3.88936 1.49374 2.99614 2.24488 2.245C2.99602 1.49386 3.88924 0.899835 4.87241 0.497588C5.85558 0.0953406 6.90901 -0.107073 7.97125 -0.0978425C9.03348 -0.0886119 10.0832 0.132078 11.0593 0.55135C12.0353 0.970622 12.9181 1.58008 13.656 2.34416C15.1133 3.85298 15.9197 5.8738 15.9014 7.97137C15.8832 10.0689 15.0419 12.0754 13.5586 13.5587C12.0753 15.042 10.0688 15.8833 7.97125 15.9016C5.87367 15.9198 3.85286 15.1134 2.34404 13.6562ZM9.12004 8.00016L11.384 5.73616L10.256 4.60816L8.00004 6.87216L5.73604 4.60816L4.60804 5.73616L6.87204 8.00016L4.60804 10.2642L5.73604 11.3922L8.00004 9.12816L10.264 11.3922L11.392 10.2642L9.12804 8.00016H9.12004Z" fill="currentColor"/>
</g>
</g>
<defs>
<clipPath id="clip0_63_101">
<rect width="16" height="16" fill="currentColor"/>
</clipPath>
<clipPath id="clip1_63_101">
<rect width="16" height="16" fill="currentColor"/>
</clipPath>
</defs>
</svg>
