<svg width="16" height="16" viewBox="0 0 16 16" fill="none" xmlns="http://www.w3.org/2000/svg">
<path d="M4.8 12.8C4.36 12.8 3.98347 12.6435 3.6704 12.3304C3.35733 12.0173 3.20053 11.6405 3.2 11.2V1.6C3.2 1.16 3.3568 0.783467 3.6704 0.4704C3.984 0.157333 4.36053 0.000533333 4.8 0H14.4C14.84 0 15.2168 0.1568 15.5304 0.4704C15.844 0.784 16.0005 1.16053 16 1.6V11.2C16 11.64 15.8435 12.0168 15.5304 12.3304C15.2173 12.644 14.8405 12.8005 14.4 12.8H4.8ZM4.8 3.2H14.4V1.6H4.8V3.2ZM1.6 16C1.16 16 0.783467 15.8435 0.4704 15.5304C0.157333 15.2173 0.000533333 14.8405 0 14.4V3.2H1.6V14.4H12.8V16H1.6Z" fill="white"/>
</svg>
