<svg width="18" height="18" viewBox="0 0 18 18" fill="none" xmlns="http://www.w3.org/2000/svg">
<path d="M1.125 4.78125C1.125 4.005 1.755 3.375 2.53125 3.375H13.2188C13.995 3.375 14.625 4.005 14.625 4.78125V10.9688C14.625 11.745 13.995 12.375 13.2188 12.375H2.53125C1.755 12.375 1.125 11.745 1.125 10.9688V4.78125ZM4.5 5.0625V4.5H3.375V5.0625C3.375 5.21168 3.31574 5.35476 3.21025 5.46025C3.10476 5.56574 2.96168 5.625 2.8125 5.625H2.25V6.75H2.8125C3.26005 6.75 3.68928 6.57221 4.00574 6.25574C4.32221 5.93928 4.5 5.51005 4.5 5.0625ZM10.125 7.875C10.125 7.27826 9.88795 6.70597 9.46599 6.28401C9.04403 5.86205 8.47174 5.625 7.875 5.625C7.27826 5.625 6.70597 5.86205 6.28401 6.28401C5.86205 6.70597 5.625 7.27826 5.625 7.875C5.625 8.47174 5.86205 9.04403 6.28401 9.46599C6.70597 9.88795 7.27826 10.125 7.875 10.125C8.47174 10.125 9.04403 9.88795 9.46599 9.46599C9.88795 9.04403 10.125 8.47174 10.125 7.875ZM12.375 4.5H11.25V5.0625C11.25 5.51005 11.4278 5.93928 11.7443 6.25574C12.0607 6.57221 12.4899 6.75 12.9375 6.75H13.5V5.625H12.9375C12.7883 5.625 12.6452 5.56574 12.5398 5.46025C12.4343 5.35476 12.375 5.21168 12.375 5.0625V4.5ZM4.5 10.6875C4.5 10.2399 4.32221 9.81072 4.00574 9.49426C3.68928 9.17779 3.26005 9 2.8125 9H2.25V10.125H2.8125C2.96168 10.125 3.10476 10.1843 3.21025 10.2898C3.31574 10.3952 3.375 10.5383 3.375 10.6875V11.25H4.5V10.6875ZM12.375 11.25V10.6875C12.375 10.5383 12.4343 10.3952 12.5398 10.2898C12.6452 10.1843 12.7883 10.125 12.9375 10.125H13.5V9H12.9375C12.4899 9 12.0607 9.17779 11.7443 9.49426C11.4278 9.81072 11.25 10.2399 11.25 10.6875V11.25H12.375ZM5.0625 14.625C4.70612 14.6251 4.35885 14.5124 4.07046 14.3031C3.78207 14.0937 3.56736 13.7984 3.45712 13.4595C3.6135 13.4865 3.77325 13.5 3.9375 13.5H13.2188C13.8901 13.5 14.5339 13.2333 15.0086 12.7586C15.4833 12.2839 15.75 11.6401 15.75 10.9688V5.72062C16.0792 5.837 16.3641 6.05259 16.5656 6.3377C16.7671 6.6228 16.8752 6.96338 16.875 7.3125V10.9688C16.875 11.4489 16.7804 11.9243 16.5967 12.3679C16.4129 12.8115 16.1436 13.2146 15.8041 13.5541C15.4646 13.8936 15.0615 14.1629 14.6179 14.3467C14.1743 14.5304 13.6989 14.625 13.2188 14.625H5.0625Z" fill="white"/>
</svg>
