<svg width="48" height="48" viewBox="0 0 48 48" fill="none" xmlns="http://www.w3.org/2000/svg">
<path fill-rule="evenodd" clip-rule="evenodd" d="M24 43.5C27.4233 43.505 30.787 42.6046 33.75 40.89V34.5C33.75 32.7098 33.0388 30.9929 31.773 29.727C30.5071 28.4612 28.7902 27.75 27 27.75H21C19.2098 27.75 17.4929 28.4612 16.227 29.727C14.9612 30.9929 14.25 32.7098 14.25 34.5V40.89C17.213 42.6046 20.5767 43.505 24 43.5ZM38.25 34.5V37.311C40.8441 34.5339 42.5702 31.0594 43.2162 27.3145C43.8622 23.5696 43.3998 19.7175 41.886 16.2319C40.3722 12.7462 37.8728 9.77884 34.6952 7.69453C31.5176 5.61022 27.8002 4.49982 24 4.49982C20.1998 4.49982 16.4824 5.61022 13.3048 7.69453C10.1272 9.77884 7.62783 12.7462 6.114 16.2319C4.60016 19.7175 4.13781 23.5696 4.78378 27.3145C5.42975 31.0594 7.15589 34.5339 9.75 37.311V34.5C9.74998 32.1806 10.4664 29.9179 11.8014 28.0212C13.1364 26.1246 15.0247 24.6866 17.208 23.904C16.0752 22.601 15.341 20.9996 15.0932 19.2909C14.8454 17.5822 15.0943 15.8382 15.8102 14.2671C16.5262 12.6959 17.679 11.3638 19.1311 10.4298C20.5832 9.49568 22.2734 8.99902 24 8.99902C25.7266 8.99902 27.4168 9.49568 28.8689 10.4298C30.321 11.3638 31.4738 12.6959 32.1898 14.2671C32.9057 15.8382 33.1546 17.5822 32.9068 19.2909C32.659 20.9996 31.9248 22.601 30.792 23.904C32.9753 24.6866 34.8636 26.1246 36.1986 28.0212C37.5336 29.9179 38.25 32.1806 38.25 34.5ZM24 48C30.3652 48 36.4697 45.4714 40.9706 40.9706C45.4714 36.4697 48 30.3652 48 24C48 17.6348 45.4714 11.5303 40.9706 7.02944C36.4697 2.52856 30.3652 0 24 0C17.6348 0 11.5303 2.52856 7.02944 7.02944C2.52856 11.5303 0 17.6348 0 24C0 30.3652 2.52856 36.4697 7.02944 40.9706C11.5303 45.4714 17.6348 48 24 48ZM28.5 18C28.5 19.1935 28.0259 20.3381 27.182 21.182C26.3381 22.0259 25.1935 22.5 24 22.5C22.8065 22.5 21.6619 22.0259 20.818 21.182C19.9741 20.3381 19.5 19.1935 19.5 18C19.5 16.8065 19.9741 15.6619 20.818 14.818C21.6619 13.9741 22.8065 13.5 24 13.5C25.1935 13.5 26.3381 13.9741 27.182 14.818C28.0259 15.6619 28.5 16.8065 28.5 18Z" fill="currentColor"/>
</svg>
